<svg xmlns="http://www.w3.org/2000/svg" xmlns:xlink="http://www.w3.org/1999/xlink" width="893" zoomAndPan="magnify" viewBox="0 0 669.75 197.999996" height="264" preserveAspectRatio="xMidYMid meet" version="1.0"><defs><g/></defs><g fill="#ae5b77" fill-opacity="1"><g transform="translate(276.814336, 115.154003)"><g><path d="M 15.125 -35.28125 C 17.375 -35.28125 19.363281 -34.84375 21.09375 -33.96875 C 22.820312 -33.09375 24.164062 -31.890625 25.125 -30.359375 C 26.082031 -28.835938 26.5625 -27.117188 26.5625 -25.203125 C 26.5625 -23.285156 26.082031 -21.5625 25.125 -20.03125 C 24.164062 -18.507812 22.820312 -17.3125 21.09375 -16.4375 C 19.363281 -15.5625 17.375 -15.125 15.125 -15.125 L 8.828125 -15.125 L 8.828125 0 L 4.78125 0 L 4.78125 -35.28125 Z M 15.125 -18.90625 C 17.34375 -18.90625 19.101562 -19.472656 20.40625 -20.609375 C 21.71875 -21.753906 22.375 -23.285156 22.375 -25.203125 C 22.375 -27.117188 21.71875 -28.644531 20.40625 -29.78125 C 19.101562 -30.925781 17.34375 -31.5 15.125 -31.5 L 8.828125 -31.5 L 8.828125 -18.90625 Z M 15.125 -18.90625 "/></g></g></g><g fill="#ae5b77" fill-opacity="1"><g transform="translate(314.622306, 115.154003)"><g><path d="M 14.46875 0.5 C 12.050781 0.5 9.953125 0.046875 8.171875 -0.859375 C 6.390625 -1.765625 5.019531 -3.023438 4.0625 -4.640625 C 3.101562 -6.253906 2.585938 -8.066406 2.515625 -10.078125 L 6.546875 -10.078125 C 6.617188 -8.097656 7.34375 -6.46875 8.71875 -5.1875 C 10.09375 -3.914062 12.007812 -3.28125 14.46875 -3.28125 C 16.65625 -3.28125 18.394531 -3.800781 19.6875 -4.84375 C 20.976562 -5.882812 21.625 -7.296875 21.625 -9.078125 C 21.625 -10.453125 21.257812 -11.582031 20.53125 -12.46875 C 19.8125 -13.363281 18.914062 -14.0625 17.84375 -14.5625 C 16.769531 -15.070312 15.328125 -15.613281 13.515625 -16.1875 C 11.296875 -16.957031 9.53125 -17.671875 8.21875 -18.328125 C 6.90625 -18.984375 5.773438 -19.960938 4.828125 -21.265625 C 3.890625 -22.578125 3.421875 -24.3125 3.421875 -26.46875 C 3.421875 -28.207031 3.890625 -29.78125 4.828125 -31.1875 C 5.773438 -32.601562 7.078125 -33.722656 8.734375 -34.546875 C 10.398438 -35.367188 12.273438 -35.78125 14.359375 -35.78125 C 16.347656 -35.78125 18.15625 -35.351562 19.78125 -34.5 C 21.414062 -33.644531 22.71875 -32.460938 23.6875 -30.953125 C 24.664062 -29.441406 25.171875 -27.773438 25.203125 -25.953125 L 21.171875 -25.953125 C 21.097656 -27.734375 20.40625 -29.1875 19.09375 -30.3125 C 17.789062 -31.445312 16.164062 -32.015625 14.21875 -32.015625 C 12.300781 -32.015625 10.71875 -31.539062 9.46875 -30.59375 C 8.226562 -29.65625 7.609375 -28.28125 7.609375 -26.46875 C 7.609375 -25.1875 7.953125 -24.125 8.640625 -23.28125 C 9.328125 -22.445312 10.179688 -21.789062 11.203125 -21.3125 C 12.234375 -20.84375 13.65625 -20.289062 15.46875 -19.65625 C 17.65625 -18.945312 19.445312 -18.238281 20.84375 -17.53125 C 22.238281 -16.832031 23.414062 -15.800781 24.375 -14.4375 C 25.332031 -13.082031 25.8125 -11.296875 25.8125 -9.078125 C 25.8125 -7.253906 25.3125 -5.613281 24.3125 -4.15625 C 23.320312 -2.695312 21.96875 -1.554688 20.25 -0.734375 C 18.539062 0.0859375 16.613281 0.5 14.46875 0.5 Z M 14.46875 0.5 "/></g></g></g><g fill="#ae5b77" fill-opacity="1"><g transform="translate(352.430276, 115.154003)"><g><path d="M 9.078125 0 L 5.046875 0 L 5.046875 -35.28125 L 9.078125 -35.28125 Z M 9.078125 0 "/></g></g></g><g fill="#ae5b77" fill-opacity="1"><g transform="translate(376.022455, 115.154003)"><g><path d="M 20.71875 0.5 C 17.457031 0.5 14.445312 -0.300781 11.6875 -1.90625 C 8.9375 -3.519531 6.757812 -5.722656 5.15625 -8.515625 C 3.5625 -11.304688 2.765625 -14.347656 2.765625 -17.640625 C 2.765625 -20.929688 3.5625 -23.972656 5.15625 -26.765625 C 6.757812 -29.554688 8.9375 -31.753906 11.6875 -33.359375 C 14.445312 -34.972656 17.457031 -35.78125 20.71875 -35.78125 C 24.445312 -35.78125 27.722656 -34.765625 30.546875 -32.734375 C 33.367188 -30.703125 35.484375 -27.941406 36.890625 -24.453125 L 32.609375 -24.453125 C 31.429688 -26.765625 29.8125 -28.601562 27.75 -29.96875 C 25.6875 -31.332031 23.34375 -32.015625 20.71875 -32.015625 C 18.226562 -32.015625 15.925781 -31.375 13.8125 -30.09375 C 11.695312 -28.8125 10.023438 -27.078125 8.796875 -24.890625 C 7.566406 -22.710938 6.953125 -20.296875 6.953125 -17.640625 C 6.953125 -14.984375 7.566406 -12.5625 8.796875 -10.375 C 10.023438 -8.195312 11.695312 -6.46875 13.8125 -5.1875 C 15.925781 -3.914062 18.226562 -3.28125 20.71875 -3.28125 C 23.4375 -3.28125 25.835938 -3.957031 27.921875 -5.3125 C 30.003906 -6.675781 31.632812 -8.519531 32.8125 -10.84375 L 37.09375 -10.84375 C 35.6875 -7.34375 33.5625 -4.578125 30.71875 -2.546875 C 27.882812 -0.515625 24.550781 0.5 20.71875 0.5 Z M 20.71875 0.5 "/></g></g></g><g fill="#ae5b77" fill-opacity="1"><g transform="translate(424.618287, 115.154003)"><g><path d="M 20.96875 0.5 C 17.644531 0.5 14.585938 -0.300781 11.796875 -1.90625 C 9.003906 -3.519531 6.800781 -5.722656 5.1875 -8.515625 C 3.570312 -11.304688 2.765625 -14.347656 2.765625 -17.640625 C 2.765625 -20.929688 3.570312 -23.972656 5.1875 -26.765625 C 6.800781 -29.554688 9.003906 -31.753906 11.796875 -33.359375 C 14.585938 -34.972656 17.644531 -35.78125 20.96875 -35.78125 C 24.289062 -35.78125 27.347656 -34.972656 30.140625 -33.359375 C 32.929688 -31.753906 35.132812 -29.554688 36.75 -26.765625 C 38.363281 -23.972656 39.171875 -20.929688 39.171875 -17.640625 C 39.171875 -14.347656 38.363281 -11.304688 36.75 -8.515625 C 35.132812 -5.722656 32.929688 -3.519531 30.140625 -1.90625 C 27.347656 -0.300781 24.289062 0.5 20.96875 0.5 Z M 20.96875 -3.28125 C 23.519531 -3.28125 25.863281 -3.914062 28 -5.1875 C 30.132812 -6.46875 31.832031 -8.195312 33.09375 -10.375 C 34.351562 -12.5625 34.984375 -14.984375 34.984375 -17.640625 C 34.984375 -20.296875 34.351562 -22.710938 33.09375 -24.890625 C 31.832031 -27.078125 30.132812 -28.8125 28 -30.09375 C 25.863281 -31.375 23.519531 -32.015625 20.96875 -32.015625 C 18.414062 -32.015625 16.070312 -31.375 13.9375 -30.09375 C 11.800781 -28.8125 10.101562 -27.078125 8.84375 -24.890625 C 7.582031 -22.710938 6.953125 -20.296875 6.953125 -17.640625 C 6.953125 -14.984375 7.582031 -12.5625 8.84375 -10.375 C 10.101562 -8.195312 11.800781 -6.46875 13.9375 -5.1875 C 16.070312 -3.914062 18.414062 -3.28125 20.96875 -3.28125 Z M 22.140625 -38.5625 L 18.453125 -38.5625 L 22.984375 -45.625 L 27.171875 -45.625 Z M 22.140625 -38.5625 "/></g></g></g><g fill="#ae5b77" fill-opacity="1"><g transform="translate(476.037113, 115.154003)"><g><path d="M 22.4375 0 L 4.78125 0 L 4.78125 -35.28125 L 8.828125 -35.28125 L 8.828125 -3.78125 L 22.4375 -3.78125 Z M 22.4375 0 "/></g></g></g><g fill="#ae5b77" fill-opacity="1"><g transform="translate(509.711405, 115.154003)"><g><path d="M 20.96875 0.5 C 17.644531 0.5 14.585938 -0.300781 11.796875 -1.90625 C 9.003906 -3.519531 6.800781 -5.722656 5.1875 -8.515625 C 3.570312 -11.304688 2.765625 -14.347656 2.765625 -17.640625 C 2.765625 -20.929688 3.570312 -23.972656 5.1875 -26.765625 C 6.800781 -29.554688 9.003906 -31.753906 11.796875 -33.359375 C 14.585938 -34.972656 17.644531 -35.78125 20.96875 -35.78125 C 24.289062 -35.78125 27.347656 -34.972656 30.140625 -33.359375 C 32.929688 -31.753906 35.132812 -29.554688 36.75 -26.765625 C 38.363281 -23.972656 39.171875 -20.929688 39.171875 -17.640625 C 39.171875 -14.347656 38.363281 -11.304688 36.75 -8.515625 C 35.132812 -5.722656 32.929688 -3.519531 30.140625 -1.90625 C 27.347656 -0.300781 24.289062 0.5 20.96875 0.5 Z M 20.96875 -3.28125 C 23.519531 -3.28125 25.863281 -3.914062 28 -5.1875 C 30.132812 -6.46875 31.832031 -8.195312 33.09375 -10.375 C 34.351562 -12.5625 34.984375 -14.984375 34.984375 -17.640625 C 34.984375 -20.296875 34.351562 -22.710938 33.09375 -24.890625 C 31.832031 -27.078125 30.132812 -28.8125 28 -30.09375 C 25.863281 -31.375 23.519531 -32.015625 20.96875 -32.015625 C 18.414062 -32.015625 16.070312 -31.375 13.9375 -30.09375 C 11.800781 -28.8125 10.101562 -27.078125 8.84375 -24.890625 C 7.582031 -22.710938 6.953125 -20.296875 6.953125 -17.640625 C 6.953125 -14.984375 7.582031 -12.5625 8.84375 -10.375 C 10.101562 -8.195312 11.800781 -6.46875 13.9375 -5.1875 C 16.070312 -3.914062 18.414062 -3.28125 20.96875 -3.28125 Z M 20.96875 -3.28125 "/></g></g></g><g fill="#ae5b77" fill-opacity="1"><g transform="translate(561.130231, 115.154003)"><g><path d="M 19.703125 -18.65625 L 38.359375 -18.65625 L 38.359375 -17.140625 C 38.359375 -13.941406 37.617188 -11 36.140625 -8.3125 C 34.660156 -5.625 32.601562 -3.484375 29.96875 -1.890625 C 27.332031 -0.296875 24.332031 0.5 20.96875 0.5 C 17.644531 0.5 14.585938 -0.300781 11.796875 -1.90625 C 9.003906 -3.519531 6.800781 -5.722656 5.1875 -8.515625 C 3.570312 -11.304688 2.765625 -14.347656 2.765625 -17.640625 C 2.765625 -20.929688 3.570312 -23.972656 5.1875 -26.765625 C 6.800781 -29.554688 9.003906 -31.753906 11.796875 -33.359375 C 14.585938 -34.972656 17.644531 -35.78125 20.96875 -35.78125 C 24.800781 -35.78125 28.175781 -34.753906 31.09375 -32.703125 C 34.019531 -30.660156 36.191406 -27.910156 37.609375 -24.453125 L 33.3125 -24.453125 C 32.175781 -26.765625 30.515625 -28.601562 28.328125 -29.96875 C 26.140625 -31.332031 23.6875 -32.015625 20.96875 -32.015625 C 18.414062 -32.015625 16.070312 -31.375 13.9375 -30.09375 C 11.800781 -28.8125 10.101562 -27.078125 8.84375 -24.890625 C 7.582031 -22.710938 6.953125 -20.296875 6.953125 -17.640625 C 6.953125 -14.984375 7.582031 -12.5625 8.84375 -10.375 C 10.101562 -8.195312 11.800781 -6.46875 13.9375 -5.1875 C 16.070312 -3.914062 18.414062 -3.28125 20.96875 -3.28125 C 23.289062 -3.28125 25.398438 -3.757812 27.296875 -4.71875 C 29.191406 -5.675781 30.734375 -7.023438 31.921875 -8.765625 C 33.117188 -10.515625 33.835938 -12.550781 34.078125 -14.875 L 19.703125 -14.875 Z M 19.703125 -18.65625 "/></g></g></g><g fill="#ae5b77" fill-opacity="1"><g transform="translate(610.986345, 115.154003)"><g><path d="M 32.765625 0 L 28.421875 0 L 24.65625 -9.578125 L 9.015625 -9.578125 L 5.25 0 L 1.015625 0 L 15.375 -35.28125 L 18.390625 -35.28125 Z M 23.140625 -13.359375 L 16.828125 -29.28125 L 10.53125 -13.359375 Z M 23.140625 -13.359375 "/></g></g></g><g fill="#113255" fill-opacity="1"><g transform="translate(27.537211, 130.604534)"><g><path d="M 91.671875 -82.851562 L 91.671875 -83.328125 L 73.074219 -83.328125 L 47.921875 -12.277344 L 18.597656 -83.328125 L 1.90625 -83.328125 L 1.90625 -82.851562 C 9.417969 -82.851562 11.085938 -81.65625 11.085938 -76.414062 L 11.085938 -7.511719 C 11.085938 -1.667969 9.417969 -0.476562 1.90625 -0.476562 L 1.90625 0 L 20.980469 0 L 20.980469 -0.476562 C 13.46875 -0.476562 11.683594 -1.667969 11.683594 -7.511719 L 11.683594 -77.722656 L 43.511719 0 L 44.105469 0 L 73.074219 -81.777344 L 73.074219 -7.511719 C 73.074219 -1.667969 71.40625 -0.476562 63.894531 -0.476562 L 63.894531 0 L 91.671875 0 L 91.671875 -0.476562 C 84.160156 -0.476562 82.375 -1.667969 82.375 -7.511719 L 82.375 -75.816406 C 82.375 -81.65625 84.160156 -82.851562 91.671875 -82.851562 Z M 91.671875 -82.851562 "/></g></g></g><g fill="#113255" fill-opacity="1"><g transform="translate(121.235237, 130.604534)"><g><path d="M 56.265625 -9.179688 C 56.265625 -1.667969 55.195312 -0.476562 49.351562 -0.476562 L 20.382812 -0.476562 L 20.382812 -75.816406 C 20.382812 -81.65625 22.171875 -82.851562 29.683594 -82.851562 L 29.683594 -83.328125 L 1.90625 -83.328125 L 1.90625 -82.851562 C 9.417969 -82.851562 11.085938 -81.65625 11.085938 -75.816406 L 11.085938 -7.511719 C 11.085938 -1.667969 9.417969 -0.476562 1.90625 -0.476562 L 1.90625 0 L 56.863281 0 L 56.863281 -9.179688 Z M 56.265625 -9.179688 "/></g></g></g><g fill="#113255" fill-opacity="1"><g transform="translate(178.455428, 130.604534)"><g/></g></g><g fill="#113255" fill-opacity="1"><g transform="translate(219.344, 130.604534)"><g><path d="M 8.820312 0 L 8.820312 -83.328125 L 7.152344 -83.328125 L 7.152344 0 Z M 8.820312 0 "/></g></g></g></svg>