<svg xmlns="http://www.w3.org/2000/svg" xmlns:xlink="http://www.w3.org/1999/xlink" width="542" zoomAndPan="magnify" viewBox="0 0 406.5 389.249997" height="519" preserveAspectRatio="xMidYMid meet" version="1.0"><defs><g/></defs><g fill="#113255" fill-opacity="1"><g transform="translate(54.346542, 257.013728)"><g><path d="M 180.449219 -163.085938 L 180.449219 -164.023438 L 143.84375 -164.023438 L 94.332031 -24.167969 L 36.605469 -164.023438 L 3.753906 -164.023438 L 3.753906 -163.085938 C 18.539062 -163.085938 21.824219 -160.738281 21.824219 -150.414062 L 21.824219 -14.785156 C 21.824219 -3.285156 18.539062 -0.9375 3.753906 -0.9375 L 3.753906 0 L 41.300781 0 L 41.300781 -0.9375 C 26.515625 -0.9375 22.996094 -3.285156 22.996094 -14.785156 L 22.996094 -152.996094 L 85.648438 0 L 86.820312 0 L 143.84375 -160.972656 L 143.84375 -14.785156 C 143.84375 -3.285156 140.558594 -0.9375 125.773438 -0.9375 L 125.773438 0 L 180.449219 0 L 180.449219 -0.9375 C 165.667969 -0.9375 162.144531 -3.285156 162.144531 -14.785156 L 162.144531 -149.242188 C 162.144531 -160.738281 165.667969 -163.085938 180.449219 -163.085938 Z M 180.449219 -163.085938 "/></g></g></g><g fill="#113255" fill-opacity="1"><g transform="translate(238.784935, 257.013728)"><g><path d="M 110.757812 -18.070312 C 110.757812 -3.285156 108.644531 -0.9375 97.148438 -0.9375 L 40.125 -0.9375 L 40.125 -149.242188 C 40.125 -160.738281 43.644531 -163.085938 58.429688 -163.085938 L 58.429688 -164.023438 L 3.753906 -164.023438 L 3.753906 -163.085938 C 18.539062 -163.085938 21.824219 -160.738281 21.824219 -149.242188 L 21.824219 -14.785156 C 21.824219 -3.285156 18.539062 -0.9375 3.753906 -0.9375 L 3.753906 0 L 111.929688 0 L 111.929688 -18.070312 Z M 110.757812 -18.070312 "/></g></g></g><g fill="#ae5b77" fill-opacity="1"><g transform="translate(52.03715, 311.987496)"><g><path d="M 12.40625 -28.9375 C 14.25 -28.9375 15.878906 -28.578125 17.296875 -27.859375 C 18.722656 -27.148438 19.828125 -26.164062 20.609375 -24.90625 C 21.390625 -23.65625 21.78125 -22.242188 21.78125 -20.671875 C 21.78125 -19.097656 21.390625 -17.679688 20.609375 -16.421875 C 19.828125 -15.171875 18.722656 -14.1875 17.296875 -13.46875 C 15.878906 -12.757812 14.25 -12.40625 12.40625 -12.40625 L 7.234375 -12.40625 L 7.234375 0 L 3.921875 0 L 3.921875 -28.9375 Z M 12.40625 -15.5 C 14.21875 -15.5 15.660156 -15.96875 16.734375 -16.90625 C 17.816406 -17.84375 18.359375 -19.097656 18.359375 -20.671875 C 18.359375 -22.242188 17.816406 -23.5 16.734375 -24.4375 C 15.660156 -25.375 14.21875 -25.84375 12.40625 -25.84375 L 7.234375 -25.84375 L 7.234375 -15.5 Z M 12.40625 -15.5 "/></g></g></g><g fill="#ae5b77" fill-opacity="1"><g transform="translate(83.040878, 311.987496)"><g><path d="M 11.859375 0.40625 C 9.878906 0.40625 8.15625 0.0351562 6.6875 -0.703125 C 5.226562 -1.441406 4.109375 -2.472656 3.328125 -3.796875 C 2.546875 -5.117188 2.125 -6.609375 2.0625 -8.265625 L 5.375 -8.265625 C 5.425781 -6.640625 6.015625 -5.300781 7.140625 -4.25 C 8.273438 -3.207031 9.847656 -2.6875 11.859375 -2.6875 C 13.648438 -2.6875 15.078125 -3.113281 16.140625 -3.96875 C 17.203125 -4.820312 17.734375 -5.976562 17.734375 -7.4375 C 17.734375 -8.570312 17.4375 -9.503906 16.84375 -10.234375 C 16.25 -10.960938 15.507812 -11.53125 14.625 -11.9375 C 13.75 -12.351562 12.566406 -12.796875 11.078125 -13.265625 C 9.253906 -13.898438 7.804688 -14.484375 6.734375 -15.015625 C 5.660156 -15.554688 4.738281 -16.363281 3.96875 -17.4375 C 3.195312 -18.519531 2.8125 -19.941406 2.8125 -21.703125 C 2.8125 -23.140625 3.195312 -24.4375 3.96875 -25.59375 C 4.738281 -26.75 5.804688 -27.664062 7.171875 -28.34375 C 8.535156 -29.019531 10.070312 -29.359375 11.78125 -29.359375 C 13.40625 -29.359375 14.882812 -29.003906 16.21875 -28.296875 C 17.5625 -27.597656 18.628906 -26.628906 19.421875 -25.390625 C 20.222656 -24.148438 20.640625 -22.785156 20.671875 -21.296875 L 17.359375 -21.296875 C 17.304688 -22.753906 16.742188 -23.941406 15.671875 -24.859375 C 14.597656 -25.785156 13.257812 -26.25 11.65625 -26.25 C 10.082031 -26.25 8.785156 -25.863281 7.765625 -25.09375 C 6.753906 -24.320312 6.25 -23.191406 6.25 -21.703125 C 6.25 -20.660156 6.53125 -19.789062 7.09375 -19.09375 C 7.65625 -18.40625 8.351562 -17.867188 9.1875 -17.484375 C 10.03125 -17.097656 11.195312 -16.644531 12.6875 -16.125 C 14.476562 -15.539062 15.945312 -14.957031 17.09375 -14.375 C 18.238281 -13.800781 19.203125 -12.957031 19.984375 -11.84375 C 20.773438 -10.726562 21.171875 -9.257812 21.171875 -7.4375 C 21.171875 -5.945312 20.765625 -4.601562 19.953125 -3.40625 C 19.140625 -2.207031 18.03125 -1.269531 16.625 -0.59375 C 15.21875 0.0703125 13.628906 0.40625 11.859375 0.40625 Z M 11.859375 0.40625 "/></g></g></g><g fill="#ae5b77" fill-opacity="1"><g transform="translate(114.044607, 311.987496)"><g><path d="M 7.4375 0 L 4.140625 0 L 4.140625 -28.9375 L 7.4375 -28.9375 Z M 7.4375 0 "/></g></g></g><g fill="#ae5b77" fill-opacity="1"><g transform="translate(133.392046, 311.987496)"><g><path d="M 17 0.40625 C 14.320312 0.40625 11.851562 -0.253906 9.59375 -1.578125 C 7.332031 -2.898438 5.546875 -4.703125 4.234375 -6.984375 C 2.929688 -9.273438 2.28125 -11.769531 2.28125 -14.46875 C 2.28125 -17.164062 2.929688 -19.660156 4.234375 -21.953125 C 5.546875 -24.242188 7.332031 -26.050781 9.59375 -27.375 C 11.851562 -28.695312 14.320312 -29.359375 17 -29.359375 C 20.050781 -29.359375 22.734375 -28.519531 25.046875 -26.84375 C 27.367188 -25.175781 29.109375 -22.910156 30.265625 -20.046875 L 26.75 -20.046875 C 25.78125 -21.953125 24.445312 -23.460938 22.75 -24.578125 C 21.0625 -25.691406 19.144531 -26.25 17 -26.25 C 14.957031 -26.25 13.066406 -25.722656 11.328125 -24.671875 C 9.585938 -23.628906 8.210938 -22.210938 7.203125 -20.421875 C 6.203125 -18.628906 5.703125 -16.644531 5.703125 -14.46875 C 5.703125 -12.289062 6.203125 -10.304688 7.203125 -8.515625 C 8.210938 -6.722656 9.585938 -5.300781 11.328125 -4.25 C 13.066406 -3.207031 14.957031 -2.6875 17 -2.6875 C 19.226562 -2.6875 21.195312 -3.242188 22.90625 -4.359375 C 24.613281 -5.472656 25.953125 -6.984375 26.921875 -8.890625 L 30.421875 -8.890625 C 29.265625 -6.023438 27.519531 -3.757812 25.1875 -2.09375 C 22.863281 -0.425781 20.132812 0.40625 17 0.40625 Z M 17 0.40625 "/></g></g></g><g fill="#ae5b77" fill-opacity="1"><g transform="translate(173.24133, 311.987496)"><g><path d="M 17.203125 0.40625 C 14.472656 0.40625 11.960938 -0.253906 9.671875 -1.578125 C 7.390625 -2.898438 5.585938 -4.703125 4.265625 -6.984375 C 2.941406 -9.273438 2.28125 -11.769531 2.28125 -14.46875 C 2.28125 -17.164062 2.941406 -19.660156 4.265625 -21.953125 C 5.585938 -24.242188 7.390625 -26.050781 9.671875 -27.375 C 11.960938 -28.695312 14.472656 -29.359375 17.203125 -29.359375 C 19.929688 -29.359375 22.4375 -28.695312 24.71875 -27.375 C 27.007812 -26.050781 28.816406 -24.242188 30.140625 -21.953125 C 31.460938 -19.660156 32.125 -17.164062 32.125 -14.46875 C 32.125 -11.769531 31.460938 -9.273438 30.140625 -6.984375 C 28.816406 -4.703125 27.007812 -2.898438 24.71875 -1.578125 C 22.4375 -0.253906 19.929688 0.40625 17.203125 0.40625 Z M 17.203125 -2.6875 C 19.296875 -2.6875 21.21875 -3.207031 22.96875 -4.25 C 24.71875 -5.300781 26.109375 -6.722656 27.140625 -8.515625 C 28.171875 -10.304688 28.6875 -12.289062 28.6875 -14.46875 C 28.6875 -16.644531 28.171875 -18.628906 27.140625 -20.421875 C 26.109375 -22.210938 24.71875 -23.628906 22.96875 -24.671875 C 21.21875 -25.722656 19.296875 -26.25 17.203125 -26.25 C 15.109375 -26.25 13.1875 -25.722656 11.4375 -24.671875 C 9.6875 -23.628906 8.289062 -22.210938 7.25 -20.421875 C 6.21875 -18.628906 5.703125 -16.644531 5.703125 -14.46875 C 5.703125 -12.289062 6.21875 -10.304688 7.25 -8.515625 C 8.289062 -6.722656 9.6875 -5.300781 11.4375 -4.25 C 13.1875 -3.207031 15.109375 -2.6875 17.203125 -2.6875 Z M 18.15625 -31.625 L 15.140625 -31.625 L 18.859375 -37.421875 L 22.296875 -37.421875 Z M 18.15625 -31.625 "/></g></g></g><g fill="#ae5b77" fill-opacity="1"><g transform="translate(215.405334, 311.987496)"><g><path d="M 18.390625 0 L 3.921875 0 L 3.921875 -28.9375 L 7.234375 -28.9375 L 7.234375 -3.09375 L 18.390625 -3.09375 Z M 18.390625 0 "/></g></g></g><g fill="#ae5b77" fill-opacity="1"><g transform="translate(243.019638, 311.987496)"><g><path d="M 17.203125 0.40625 C 14.472656 0.40625 11.960938 -0.253906 9.671875 -1.578125 C 7.390625 -2.898438 5.585938 -4.703125 4.265625 -6.984375 C 2.941406 -9.273438 2.28125 -11.769531 2.28125 -14.46875 C 2.28125 -17.164062 2.941406 -19.660156 4.265625 -21.953125 C 5.585938 -24.242188 7.390625 -26.050781 9.671875 -27.375 C 11.960938 -28.695312 14.472656 -29.359375 17.203125 -29.359375 C 19.929688 -29.359375 22.4375 -28.695312 24.71875 -27.375 C 27.007812 -26.050781 28.816406 -24.242188 30.140625 -21.953125 C 31.460938 -19.660156 32.125 -17.164062 32.125 -14.46875 C 32.125 -11.769531 31.460938 -9.273438 30.140625 -6.984375 C 28.816406 -4.703125 27.007812 -2.898438 24.71875 -1.578125 C 22.4375 -0.253906 19.929688 0.40625 17.203125 0.40625 Z M 17.203125 -2.6875 C 19.296875 -2.6875 21.21875 -3.207031 22.96875 -4.25 C 24.71875 -5.300781 26.109375 -6.722656 27.140625 -8.515625 C 28.171875 -10.304688 28.6875 -12.289062 28.6875 -14.46875 C 28.6875 -16.644531 28.171875 -18.628906 27.140625 -20.421875 C 26.109375 -22.210938 24.71875 -23.628906 22.96875 -24.671875 C 21.21875 -25.722656 19.296875 -26.25 17.203125 -26.25 C 15.109375 -26.25 13.1875 -25.722656 11.4375 -24.671875 C 9.6875 -23.628906 8.289062 -22.210938 7.25 -20.421875 C 6.21875 -18.628906 5.703125 -16.644531 5.703125 -14.46875 C 5.703125 -12.289062 6.21875 -10.304688 7.25 -8.515625 C 8.289062 -6.722656 9.6875 -5.300781 11.4375 -4.25 C 13.1875 -3.207031 15.109375 -2.6875 17.203125 -2.6875 Z M 17.203125 -2.6875 "/></g></g></g><g fill="#ae5b77" fill-opacity="1"><g transform="translate(285.183642, 311.987496)"><g><path d="M 16.171875 -15.296875 L 31.46875 -15.296875 L 31.46875 -14.0625 C 31.46875 -11.4375 30.859375 -9.019531 29.640625 -6.8125 C 28.429688 -4.613281 26.742188 -2.859375 24.578125 -1.546875 C 22.410156 -0.242188 19.953125 0.40625 17.203125 0.40625 C 14.472656 0.40625 11.960938 -0.253906 9.671875 -1.578125 C 7.390625 -2.898438 5.585938 -4.703125 4.265625 -6.984375 C 2.941406 -9.273438 2.28125 -11.769531 2.28125 -14.46875 C 2.28125 -17.164062 2.941406 -19.660156 4.265625 -21.953125 C 5.585938 -24.242188 7.390625 -26.050781 9.671875 -27.375 C 11.960938 -28.695312 14.472656 -29.359375 17.203125 -29.359375 C 20.335938 -29.359375 23.101562 -28.515625 25.5 -26.828125 C 27.90625 -25.148438 29.6875 -22.890625 30.84375 -20.046875 L 27.328125 -20.046875 C 26.390625 -21.953125 25.023438 -23.460938 23.234375 -24.578125 C 21.441406 -25.691406 19.429688 -26.25 17.203125 -26.25 C 15.109375 -26.25 13.1875 -25.722656 11.4375 -24.671875 C 9.6875 -23.628906 8.289062 -22.210938 7.25 -20.421875 C 6.21875 -18.628906 5.703125 -16.644531 5.703125 -14.46875 C 5.703125 -12.289062 6.21875 -10.304688 7.25 -8.515625 C 8.289062 -6.722656 9.6875 -5.300781 11.4375 -4.25 C 13.1875 -3.207031 15.109375 -2.6875 17.203125 -2.6875 C 19.097656 -2.6875 20.820312 -3.078125 22.375 -3.859375 C 23.9375 -4.648438 25.207031 -5.757812 26.1875 -7.1875 C 27.164062 -8.625 27.753906 -10.296875 27.953125 -12.203125 L 16.171875 -12.203125 Z M 16.171875 -15.296875 "/></g></g></g><g fill="#ae5b77" fill-opacity="1"><g transform="translate(326.066293, 311.987496)"><g><path d="M 26.875 0 L 23.3125 0 L 20.21875 -7.859375 L 7.40625 -7.859375 L 4.296875 0 L 0.828125 0 L 12.609375 -28.9375 L 15.09375 -28.9375 Z M 18.984375 -10.953125 L 13.8125 -24.015625 L 8.640625 -10.953125 Z M 18.984375 -10.953125 "/></g></g></g></svg>